<?xml version="1.0" encoding="utf-8"?>
<?xml-stylesheet type="text/xsl" href="rss1.xsl"?>
<rss version="2.0" xmlns:atom="http://www.w3.org/2005/Atom" xmlns:content="http://purl.org/rss/1.0/modules/content/" xmlns:dc="http://purl.org/dc/elements/1.1/" xmlns:media="http://search.yahoo.com/mrss/">
<channel>
 <title>Getty</title>
 <link>http://www.gettyimg.com/</link>
 <atom:link href="http://www.gettyimg.com/" rel="self" type="application/rss+xml" />

 
                <item>
                <title><![CDATA[【UPSCALED】PACK - Ariana Grande Video Pack x27 (Ai Upscale) 4K]]></title>
                <link><![CDATA[https://sharemania.us/threads/ariana-grande-video-pack-x27-ai-upscale-4k.241830/]]></link>
                <description><![CDATA[<article>
<blockquote class="messageText SelectQuoteContainer ugc baseHtml">
<img src="https://images2.imgbox.com/6e/0e/vWPzq33l_o.jpg" class="bbCodeImage LbImage" alt="[​IMG]" data-url="https://images2.imgbox.com/6e/0e/vWPzq33l_o.jpg" style=""><img src="https://images2.imgbox.com/60/d3/Qvg06lgA_o.jpg" class="bbCodeImage LbImage" alt="[​IMG]" data-url="https://images2.imgbox.com/60/d3/Qvg06lgA_o.jpg" style=""><img src="https://images2.imgbox.com/dc/47/v88I42De_o.jpg" class="bbCodeImage LbImage" alt="[​IMG]" data-url="https://images2.imgbox.com/dc/47/v88I42De_o.jpg" style=""><img src="https://images2.imgbox.com/1b/0e/SMfoHT7e_o.jpg" class="bbCodeImage LbImage" alt="[​IMG]" data-url="https://images2.imgbox.com/1b/0e/SMfoHT7e_o.jpg" style=""><br>
<br>
Hello everyone,<br>
After my Taylor Swift upscales I decided to upscale Ariana Grande videos. All videos upscaled from the highest quality Master or ProRes file I could find.<br>
<br>
<div class="ToggleTriggerAnchor bbCodeSpoilerContainer">
<button type="button" class="button bbCodeSpoilerButton ToggleTrigger Tooltip JsOnly" data-target="> .SpoilerTarget"><span>Spoiler: <span class="SpoilerTitle">File List</span></span></button>
<div class="SpoilerTarget bbCodeSpoilerText">Ariana Grande &amp; Big Sean - Right There (Master 4K Upscale) - 2013<br>
Ariana Grande &amp; Future - Everyday (Master 4K Upscale) - 2017<br>
Ariana Grande &amp; Iggy Azalea - Problem (Master 4K Upscale) - 2014<br>
Ariana Grande &amp; Lil Wayne - Let Me Love You (Master 4K Upscale) - 2016<br>
Ariana Grande &amp; Mac Miller - The Way (Master 4K Upscale) - 2013<br>
Ariana Grande &amp; Nathan Sykes - Almost Is Never Enough (Master 4K Upscale) - 2013<br>
Ariana Grande &amp; Nicki Minaj - Side To Side Master 4K Upscale) - 2016<br>
Ariana Grande &amp; Nicki Minaj - The Light Is Coming (Master 4K Upscale) - 2018<br>
Ariana Grande &amp; The Weeknd - Love Me Harder (Master 4K Upscale) - 2014<br>
Ariana Grande &amp; Zedd - Break Free (Master 4K Upscale) - 2014<br>
Ariana Grande - 34+35 (Master 4K Upscale) - 2020<br>
Ariana Grande - 7 Rings (Master 4K Upscale) - 2019<br>
Ariana Grande - Baby I (Master 4K Upscale) - 2013<br>
Ariana Grande - Break Up With Your Girlfriend, I’m Bored (Master 4K Upscale) - 2019<br>
Ariana Grande - Dangerous Woman (Master 4K Upscale) - 2016<br>
Ariana Grande - Focus (Master 4K Upscale) - 2015<br>
Ariana Grande - God Is A Woman (Master 4K Upscale) - 2018<br>
Ariana Grande - In My Head (Master 4K Upscale) - 2019<br>
Ariana Grande - Into You (Master 4K Upscale) - 2016<br>
Ariana Grande - No Tears Left To Cry (Master 4K Upscale) - 2018<br>
Ariana Grande - One Last Time (Master 4K Upscale) - 2015<br>
Ariana Grande - positions (Master 4K Upscale) - 2020<br>
Ariana Grande - Santa Tell Me (Master 4K Upscale) - 2014<br>
Ariana Grande - thank u, next (Master 4K Upscale) - 2018<br>
Ariana Grande, Miley Cyrus, Lana Del Rey - Don’t Call Me Angel (Master 4K Upscale) - 2019<br>
Jessie J, Ariana Grande &amp; Nicki Minaj - Bang Bang (Master 4K Upscale) - 2014<br>
Lady Gaga, Ariana Grande - Rain On Me (Master 4K Upscale) - 2020</div>
</div><br>
<div class="ToggleTriggerAnchor bbCodeSpoilerContainer">
<button type="button" class="button bbCodeSpoilerButton ToggleTrigger Tooltip JsOnly" data-target="> .SpoilerTarget"><span>Spoiler: <span class="SpoilerTitle">Example Media Info</span></span></button>
<div class="SpoilerTarget bbCodeSpoilerText">
<div class="bbCodeBlock bbCodeCode">
<div class="type">Code:</div>
<pre>Format                      : Matroska
Format version              : Version 4
File size                   : 642 MiB
Duration                    : 3 min 4 s
Overall bit rate mode       : Variable
Overall bit rate            : 29.2 Mb/s
Frame rate                  : 23.976 FPS
Encoded date                : 2024-03-12 14:08:51 UTC
Writing application         : mkvmerge v51.0.0 ('I Wish') 64-bit
Writing library             : libebml v1.4.0 + libmatroska v1.6.2

Video
ID                          : 1
Format                      : HEVC
Format/Info                 : High Efficiency Video Coding
Format profile              : Main 10@L5@Main
Codec ID                    : V_MPEGH/ISO/HEVC
Duration                    : 3 min 4 s
Bit rate                    : 28.3 Mb/s
Width                       : 3 840 pixels
Height                      : 2 160 pixels
Display aspect ratio        : 16:9
Frame rate mode             : Constant
Frame rate                  : 23.976 (24000/1001) FPS
Color space                 : YUV
Chroma subsampling          : 4:2:0
Bit depth                   : 10 bits
Bits/(Pixel*Frame)          : 0.142
Stream size                 : 622 MiB (97%)
Language                    : English
Default                     : No
Forced                      : No
Color range                 : Limited
Color primaries             : BT.709
Transfer characteristics    : BT.709
Matrix coefficients         : BT.709

Audio
ID                          : 2
Format                      : FLAC
Format/Info                 : Free Lossless Audio Codec
Codec ID                    : A_FLAC
Duration                    : 3 min 4 s
Bit rate mode               : Variable
Bit rate                    : 906 kb/s
Channel(s)                  : 2 channels
Channel layout              : L R
Sampling rate               : 48.0 kHz
Frame rate                  : 11.723 FPS (4095 SPF)
Bit depth                   : 16 bits
Compression mode            : Lossless
Delay relative to video     : -30 ms
Stream size                 : 19.9 MiB (3%)
Writing library             : libFLAC 1.4.2 (2022-10-22)
Default                     : Yes
Forced                      : No
MD5 of the unencoded conten : BDA956750E494A09CEBB655CCE976A98

</pre>
</div></div>
</div><br>
<b>Host</b>: pixeldrain<br>
<br>
<div class="bbCodeBlock bbCodeVfcHH HiddenContent">
<div class="attribution type">Hidden Content:</div>
<blockquote>You must reply before you can see the hidden data contained here.</blockquote>
</div>
<div class="messageTextEndMarker">&nbsp;</div>
</blockquote>
</article>]]></description>
                <author><![CDATA[thankstome]]></author>
                </item>

                </channel></rss>